<svg width="19" height="28" viewBox="0 0 19 28" fill="none" xmlns="http://www.w3.org/2000/svg">
<path fill-rule="evenodd" clip-rule="evenodd" d="M11.947 13.9306L17.9214 7.93134C18.2695 7.58256 18.4424 7.095 18.3949 6.60439C18.3462 6.11317 18.0796 5.66943 17.6718 5.3943L10.0747 0.281866C9.56761 -0.0602207 8.9084 -0.0930903 8.3697 0.193605C7.8304 0.48091 7.48283 1.04213 7.48283 1.65204V9.59369L3.53301 5.60065C2.89022 4.953 1.85422 4.94874 1.20657 5.5903C0.558919 6.23308 0.55405 7.27943 1.19683 7.92708L7.14988 13.9294L1.19683 19.9312C0.55405 20.5782 0.558919 21.6246 1.20657 22.2686C1.85422 22.9107 2.89083 22.9071 3.53301 22.2582L7.48283 18.2652V26.2062C7.48283 26.8167 7.8304 27.378 8.3697 27.6646C8.9084 27.952 9.56761 27.9185 10.0747 27.5758L17.6712 22.4652C18.0802 22.1894 18.3462 21.7451 18.3943 21.2551C18.4418 20.7639 18.2689 20.2775 17.9207 19.9275L11.947 13.9306ZM10.8355 4.757L14.1937 7.01708L10.8355 10.3886V4.757ZM10.8355 17.4733V23.1049L14.1937 20.8448L10.8355 17.4733Z" fill="white"/>
</svg>
